<svg width="106" height="36" viewBox="0 0 106 36" fill="none" xmlns="http://www.w3.org/2000/svg">
<g id="Group 452150">
<path id="Vector" d="M103.301 24.2023H100.446C100.096 24.2023 99.5458 24.2054 99.1955 24.2023C97.7821 24.1746 96.4485 25.118 95.9692 26.43L96.0767 26.2426L95.8616 26.7834C95.8893 26.6635 95.9261 26.5437 95.9692 26.43L95.5175 27.2228C94.5557 23.6953 93.4403 19.584 92.5769 16.4498C92.4417 15.9551 92.3341 15.445 91.99 15.0056C90.7486 13.3003 87.9739 13.7857 87.3778 15.7953L87.3502 15.8875L87.2303 16.2501L83.8411 26.6635C82.6458 26.6574 80.8421 26.6482 80.0155 26.642L77.416 26.6236V27.0599C77.3638 26.8141 77.1549 26.6297 76.9152 26.6205H77.416L77.4929 15.3037C77.5082 14.8643 77.7202 14.4341 78.0582 14.1545L78.1289 14.0992L78.7312 13.629C81.472 11.4996 85.6417 8.22718 88.3672 6.11007C89.2583 5.3972 90.512 5.54162 91.3293 6.29444C94.7554 8.92776 98.2153 11.5304 101.657 14.1422C102.837 15.0394 104.524 14.8182 105.433 13.6444C106.349 12.4614 106.131 10.7653 104.951 9.84959C101.724 7.35453 98.5134 4.84412 95.2747 2.36135L94.6694 1.89429C92.5769 0.148984 89.5717 -0.382592 87.0183 0.594535C85.8292 0.97248 84.7138 1.94653 83.7489 2.69628L81.3491 4.58908C80.4795 5.26815 76.1255 8.71575 75.3542 9.32108L74.7581 9.79428C73.1081 11.0664 72.091 13.1036 72.0664 15.1838L72.1002 21.3539C72.1094 22.3525 72.1248 24.9705 72.1309 25.9353C72.1309 26.1781 72.1371 26.851 72.1371 27.0814C72.1217 28.498 72.7793 29.9083 73.8732 30.7933C74.6475 31.4263 75.6369 31.8104 76.6386 31.8534C76.6939 31.8841 79.8896 31.8226 80.0155 31.8411L83.076 31.8226L84.6031 31.8134C85.187 31.8288 85.7984 31.7735 86.3392 31.5369C87.3962 31.1067 88.1706 30.1449 88.4441 29.048C88.5117 28.8298 88.7114 28.1692 88.779 27.951C89.0647 27.02 89.4365 25.8155 89.8329 24.528C90.7363 27.5884 91.6458 30.6827 92.4693 33.4573C93.1054 35.4946 95.9476 35.7619 96.9616 33.8967C97.1184 33.5741 99.0019 30.2033 99.807 28.6362H99.2293C99.4874 28.6362 99.8439 28.4488 100.041 28.1692C99.9821 28.2952 99.9022 28.4519 99.8101 28.6362C100.879 28.6362 102.542 28.6393 103.304 28.6362C106.25 28.5195 106.235 24.3098 103.304 24.2023H103.301ZM100.037 28.163C100.099 28.034 100.139 27.9418 100.154 27.8896C100.136 27.9879 100.093 28.0801 100.037 28.163Z" fill="url(#paint0_linear_1682_205933)"/>
<g id="Group">
<path id="Vector_2" d="M22.8206 14.2048C23.4167 14.2048 23.896 14.0143 24.2402 13.6394C24.5813 13.2676 24.7533 12.7668 24.7533 12.1553C24.7533 11.5438 24.5843 11.0153 24.2555 10.6435C23.9206 10.2686 23.4382 10.0781 22.8206 10.0781C22.203 10.0781 21.7451 10.2625 21.401 10.6281C21.0599 10.9907 20.8848 11.5069 20.8848 12.1584C20.8848 12.8098 21.063 13.2983 21.4164 13.6609C21.7697 14.0235 22.2398 14.2079 22.8175 14.2079L22.8206 14.2048Z" fill="black"/>
<path id="Vector_3" d="M62.3203 7.72489H62.179C61.2111 7.72489 60.4244 8.49307 60.4244 9.43333V23.8967C60.4244 26.6068 59.478 27.5133 56.5313 27.6269H53.7443V24.081C53.7443 21.4415 53.1359 19.4658 51.9406 18.209C50.7361 16.9492 48.9386 16.3101 46.5941 16.3101C45.4142 16.3101 44.3141 16.5344 43.3247 16.9799C42.3384 17.4224 41.4258 18.0984 40.6054 18.9864C39.8863 19.7669 39.238 20.7256 38.6787 21.8441V11.5289C38.6787 10.4873 37.8307 9.63613 36.7921 9.63613C35.7535 9.63613 34.9024 10.4842 34.9024 11.5289V27.6085H28.5726V23.4726C28.5726 23.4357 28.5726 23.4019 28.5695 23.3497V23.2237C28.5726 23.1561 28.5726 23.0885 28.5726 23.0209C28.5726 21.3832 28.1608 20.0035 27.3496 18.9188C26.8488 18.2244 26.185 17.6744 25.38 17.2811C24.3414 16.7587 23.0939 16.4945 21.6774 16.4945C21.6343 16.4945 21.5944 16.4945 21.5545 16.4975H21.5329H21.4653C21.2349 16.4883 20.986 16.4975 20.774 16.5067L20.2885 16.5866C16.6903 17.0629 14.7883 19.4166 14.7883 23.3866C14.7883 24.0718 14.8252 26.3272 15.2615 27.587H8.33865H7.56433C6.20004 27.5931 5.29665 27.5993 4.90027 27.206C4.56842 26.8772 4.40864 26.109 4.39942 24.797V24.6956C4.40249 24.6556 4.40556 24.6126 4.40556 24.5665C4.40556 24.4897 4.40556 24.1793 4.40556 23.8567V23.1869C4.40556 22.6983 4.2212 22.2404 3.88013 21.8963C3.54827 21.5645 3.11195 21.3801 2.64797 21.3801C1.68006 21.3801 0.890366 22.1851 0.887294 23.1776L0.875 24.6741C0.875 30.1896 3.42843 31.2343 8.142 31.2343H14.3919V31.222H55.9075C56.4268 31.222 56.9184 31.1974 57.3701 31.1544C61.8225 30.7365 64.0779 28.3152 64.0779 23.9581V9.42719C64.0779 8.48386 63.2913 7.71875 62.3234 7.71875L62.3203 7.72489ZM49.9372 24.081V27.5778H38.8877L38.9061 27.5286C39.4715 25.9615 40.6514 22.7044 43.042 20.5873C43.7334 19.9759 44.8058 19.5641 45.7122 19.5641C47.138 19.5641 48.2104 19.9328 48.8986 20.6549C49.5869 21.3832 49.9372 22.5354 49.9372 24.081ZM25.2233 23.3958V27.6146H19.7231C18.663 27.4334 18.2052 26.361 18.1345 25.5068V23.1408C18.1345 20.7563 19.0932 19.8161 21.5483 19.7823C22.4394 19.7915 23.1246 19.8929 23.647 20.0896L23.6777 20.1018C23.6777 20.1018 23.7023 20.1111 23.7269 20.1264L23.7883 20.1541C24.1355 20.3139 24.4029 20.5167 24.6057 20.7655C25.0297 21.3094 25.2264 22.1421 25.2264 23.3927L25.2233 23.3958Z" fill="black"/>
</g>
</g>
<defs>
<linearGradient id="paint0_linear_1682_205933" x1="69.7619" y1="2.34906" x2="105.805" y2="35.3194" gradientUnits="userSpaceOnUse">
<stop offset="0.39" stop-color="#5543FF"/>
<stop offset="0.46" stop-color="#5A49FF"/>
<stop offset="0.55" stop-color="#6A5AFF"/>
<stop offset="0.66" stop-color="#8477FF"/>
<stop offset="0.78" stop-color="#A89EFF"/>
<stop offset="0.9" stop-color="#D5D1FF"/>
<stop offset="1" stop-color="white"/>
</linearGradient>
</defs>
</svg>
