<svg width="64" height="64" viewBox="0 0 64 64" fill="none" xmlns="http://www.w3.org/2000/svg">
<g clip-path="url(#clip0_3060_125284)">
<g clip-path="url(#clip1_3060_125284)">
<path d="M27.7816 19.3281H35.7784C41.6877 19.3281 46.4858 24.1797 46.4858 30.1548V51.102H17.0742V30.1548C17.0742 24.1797 21.8723 19.3281 27.7816 19.3281Z" fill="url(#paint0_linear_3060_125284)"/>
<path d="M48.9393 51.9531H15.8062C15.1743 51.9531 14.6621 52.471 14.6621 53.1099V59.6391C14.6621 60.278 15.1743 60.7959 15.8062 60.7959H48.9393C49.5711 60.7959 50.0833 60.278 50.0833 59.6391V53.1099C50.0833 52.471 49.5711 51.9531 48.9393 51.9531Z" fill="url(#paint1_linear_3060_125284)"/>
<path d="M31.9362 44.4847C36.2675 44.4847 39.7786 40.9344 39.7786 36.5548C39.7786 32.1753 36.2675 28.625 31.9362 28.625C27.6049 28.625 24.0938 32.1753 24.0938 36.5548C24.0938 40.9344 27.6049 44.4847 31.9362 44.4847Z" fill="white"/>
<path d="M31.9311 37.2728C31.7343 37.2728 31.5742 37.1109 31.5742 36.9119V30.6734C31.5742 30.4744 31.7343 30.3125 31.9311 30.3125C32.1279 30.3125 32.288 30.4744 32.288 30.6734V36.9119C32.288 37.1109 32.1279 37.2728 31.9311 37.2728Z" fill="url(#paint2_linear_3060_125284)"/>
<path d="M37.6819 37.3937H31.7436C31.5468 37.3937 31.3867 37.2317 31.3867 37.0328C31.3867 36.8338 31.5468 36.6719 31.7436 36.6719H37.6819C37.8787 36.6719 38.0388 36.8338 38.0388 37.0328C38.0388 37.2317 37.8787 37.3937 37.6819 37.3937Z" fill="url(#paint3_linear_3060_125284)"/>
<path d="M21.0904 19.6752C20.8975 19.6752 20.7046 19.6089 20.5483 19.4724L13.0917 13.0076C12.7425 12.7052 12.702 12.1726 13.001 11.8176C13.3001 11.4645 13.8267 11.4235 14.1759 11.7259L21.6325 18.1888C21.9817 18.4911 22.0222 19.0237 21.7232 19.3787C21.5573 19.5738 21.3238 19.6733 21.0904 19.6733V19.6752Z" fill="url(#paint4_linear_3060_125284)"/>
<path d="M31.2397 17.7187C30.7786 17.7187 30.4062 17.3403 30.4062 16.876V4.04585C30.4062 3.57962 30.7805 3.20312 31.2397 3.20312C31.6989 3.20312 32.0731 3.58157 32.0731 4.04585V16.876C32.0731 17.3422 31.6989 17.7187 31.2397 17.7187Z" fill="url(#paint5_linear_3060_125284)"/>
<path d="M40.6102 19.2581C40.3208 19.2581 40.0391 19.106 39.8848 18.8329C39.6571 18.429 39.796 17.914 40.1973 17.6819L49.9536 12.0637C50.3529 11.8335 50.8623 11.974 51.0918 12.3798C51.3195 12.7836 51.1806 13.2986 50.7793 13.5307L41.023 19.1489C40.8938 19.223 40.751 19.2601 40.6121 19.2601L40.6102 19.2581Z" fill="url(#paint6_linear_3060_125284)"/>
<path d="M31.8808 38.3559C32.6672 38.3559 33.3046 37.7113 33.3046 36.9162C33.3046 36.1211 32.6672 35.4766 31.8808 35.4766C31.0945 35.4766 30.457 36.1211 30.457 36.9162C30.457 37.7113 31.0945 38.3559 31.8808 38.3559Z" fill="url(#paint7_linear_3060_125284)"/>
</g>
</g>
<defs>
<linearGradient id="paint0_linear_3060_125284" x1="32.0742" y1="54.3267" x2="31.0998" y2="9.70551" gradientUnits="userSpaceOnUse">
<stop stop-color="white"/>
<stop offset="0.45" stop-color="#B4ACFF"/>
<stop offset="1" stop-color="#5543FF"/>
</linearGradient>
<linearGradient id="paint1_linear_3060_125284" x1="32.4113" y1="64.5921" x2="32.3028" y2="41.2981" gradientUnits="userSpaceOnUse">
<stop stop-color="white"/>
<stop offset="0.45" stop-color="#B4ACFF"/>
<stop offset="1" stop-color="#5543FF"/>
</linearGradient>
<linearGradient id="paint2_linear_3060_125284" x1="31.8424" y1="41.7849" x2="32.0298" y2="25.5547" gradientUnits="userSpaceOnUse">
<stop stop-color="white"/>
<stop offset="0.45" stop-color="#B4ACFF"/>
<stop offset="1" stop-color="#5543FF"/>
</linearGradient>
<linearGradient id="paint3_linear_3060_125284" x1="34.6568" y1="41.9389" x2="34.8442" y2="25.7087" gradientUnits="userSpaceOnUse">
<stop stop-color="white"/>
<stop offset="0.45" stop-color="#B4ACFF"/>
<stop offset="1" stop-color="#5543FF"/>
</linearGradient>
<linearGradient id="paint4_linear_3060_125284" x1="17.2492" y1="23.0364" x2="17.8489" y2="-15.2295" gradientUnits="userSpaceOnUse">
<stop stop-color="white"/>
<stop offset="0.45" stop-color="#B4ACFF"/>
<stop offset="1" stop-color="#5543FF"/>
</linearGradient>
<linearGradient id="paint5_linear_3060_125284" x1="31.0429" y1="23.2628" x2="31.6445" y2="-15.0031" gradientUnits="userSpaceOnUse">
<stop stop-color="white"/>
<stop offset="0.45" stop-color="#B4ACFF"/>
<stop offset="1" stop-color="#5543FF"/>
</linearGradient>
<linearGradient id="paint6_linear_3060_125284" x1="45.3658" y1="23.4854" x2="45.9674" y2="-14.7824" gradientUnits="userSpaceOnUse">
<stop stop-color="white"/>
<stop offset="0.45" stop-color="#B4ACFF"/>
<stop offset="1" stop-color="#5543FF"/>
</linearGradient>
<linearGradient id="paint7_linear_3060_125284" x1="31.7188" y1="40.1233" x2="32.204" y2="30.6704" gradientUnits="userSpaceOnUse">
<stop stop-color="white"/>
<stop offset="0.45" stop-color="#B4ACFF"/>
<stop offset="1" stop-color="#5543FF"/>
</linearGradient>
<clipPath id="clip0_3060_125284">
<rect width="64" height="64" fill="white"/>
</clipPath>
<clipPath id="clip1_3060_125284">
<rect width="38.4" height="57.6" fill="white" transform="translate(12.8008 3.20312)"/>
</clipPath>
</defs>
</svg>
